<?xml version="1.0" encoding="utf-8"?>
<!-- Generator: Adobe Illustrator 17.0.0, SVG Export Plug-In . SVG Version: 6.00 Build 0)  -->
<!DOCTYPE svg PUBLIC "-//W3C//DTD SVG 1.1//EN" "http://www.w3.org/Graphics/SVG/1.1/DTD/svg11.dtd">
<svg version="1.1" id="Calque_1" xmlns="http://www.w3.org/2000/svg" xmlns:xlink="http://www.w3.org/1999/xlink" x="0px" y="0px"
	 width="500px" height="500px" viewBox="0 0 500 500" enable-background="new 0 0 500 500" xml:space="preserve">
<g>
	<circle fill="#A3195B" cx="248.799" cy="250.152" r="40.588"/>
	<circle fill="#A3195B" cx="178.827" cy="381.628" r="22.324"/>
	<circle fill="#F9B233" cx="44.26" cy="206.217" r="10.481"/>
	<circle fill="#F9B233" cx="71.224" cy="151.29" r="7.773"/>
	<circle fill="#A3195B" cx="54.985" cy="174.219" r="9.573"/>
	<circle fill="#A3195B" cx="40.382" cy="250.152" r="13.696"/>
	<circle fill="#F9B233" cx="47.554" cy="304.777" r="14.694"/>
	<circle fill="#A3195B" cx="74.455" cy="357.68" r="16.352"/>
	<circle fill="#F9B233" cx="118.324" cy="390.205" r="17.457"/>
	<circle fill="#F9B233" cx="221.374" cy="334.613" r="26.022"/>
	<circle fill="#A3195B" cx="318.771" cy="118.677" r="22.324"/>
	<circle fill="#F9B233" cx="453.338" cy="294.088" r="10.481"/>
	<circle fill="#F9B233" cx="426.374" cy="349.014" r="7.773"/>
	<circle fill="#A3195B" cx="442.613" cy="326.085" r="9.573"/>
	<circle fill="#A3195B" cx="457.216" cy="250.152" r="13.696"/>
	<circle fill="#F9B233" cx="450.044" cy="195.527" r="14.694"/>
	<circle fill="#A3195B" cx="423.143" cy="142.624" r="16.352"/>
	<circle fill="#F9B233" cx="379.274" cy="110.099" r="17.457"/>
	<circle fill="#F9B233" cx="276.224" cy="165.691" r="26.022"/>
</g>
</svg>
